<svg width="182" height="50" viewBox="0 0 182 50" fill="none" xmlns="http://www.w3.org/2000/svg">
<path d="M40.5057 32V30.7216L45.3068 25.4659C45.8703 24.8504 46.3343 24.3153 46.6989 23.8608C47.0634 23.4015 47.3333 22.9706 47.5085 22.5682C47.6884 22.161 47.7784 21.7348 47.7784 21.2898C47.7784 20.7784 47.6553 20.3357 47.4091 19.9616C47.1676 19.5876 46.8362 19.2988 46.4148 19.0952C45.9934 18.8916 45.5199 18.7898 44.9943 18.7898C44.4356 18.7898 43.9479 18.9058 43.5312 19.1378C43.1193 19.3651 42.7997 19.6847 42.5724 20.0966C42.3499 20.5085 42.2386 20.9915 42.2386 21.5455H40.5625C40.5625 20.6932 40.759 19.9451 41.152 19.3011C41.545 18.6572 42.08 18.1553 42.7571 17.7955C43.4389 17.4356 44.2036 17.2557 45.0511 17.2557C45.9034 17.2557 46.6586 17.4356 47.3168 17.7955C47.9749 18.1553 48.491 18.6406 48.8651 19.2514C49.2391 19.8622 49.4261 20.5417 49.4261 21.2898C49.4261 21.8248 49.3291 22.348 49.1349 22.8594C48.9455 23.366 48.6141 23.9318 48.1406 24.5568C47.6719 25.1771 47.0208 25.9347 46.1875 26.8295L42.9205 30.3239V30.4375H49.6818V32H40.5057ZM57.3594 32.1989C56.2893 32.1989 55.3778 31.9077 54.625 31.3253C53.8722 30.7382 53.2969 29.8883 52.8991 28.7756C52.5014 27.6581 52.3026 26.3087 52.3026 24.7273C52.3026 23.1553 52.5014 21.813 52.8991 20.7003C53.3016 19.5829 53.8793 18.7306 54.6321 18.1435C55.3897 17.5516 56.2988 17.2557 57.3594 17.2557C58.42 17.2557 59.3267 17.5516 60.0795 18.1435C60.8371 18.7306 61.4148 19.5829 61.8125 20.7003C62.215 21.813 62.4162 23.1553 62.4162 24.7273C62.4162 26.3087 62.2173 27.6581 61.8196 28.7756C61.4219 29.8883 60.8466 30.7382 60.0938 31.3253C59.3409 31.9077 58.4295 32.1989 57.3594 32.1989ZM57.3594 30.6364C58.42 30.6364 59.2438 30.125 59.831 29.1023C60.4181 28.0795 60.7116 26.6212 60.7116 24.7273C60.7116 23.4678 60.5767 22.3954 60.3068 21.5099C60.0417 20.6245 59.6581 19.9498 59.1562 19.4858C58.6591 19.0218 58.0601 18.7898 57.3594 18.7898C56.3082 18.7898 55.4867 19.3082 54.8949 20.3452C54.303 21.3774 54.0071 22.8381 54.0071 24.7273C54.0071 25.9867 54.1397 27.0568 54.4048 27.9375C54.67 28.8182 55.0511 29.4882 55.5483 29.9474C56.0502 30.4067 56.6539 30.6364 57.3594 30.6364ZM65.1151 32V30.7216L69.9162 25.4659C70.4796 24.8504 70.9437 24.3153 71.3082 23.8608C71.6728 23.4015 71.9427 22.9706 72.1179 22.5682C72.2978 22.161 72.3878 21.7348 72.3878 21.2898C72.3878 20.7784 72.2647 20.3357 72.0185 19.9616C71.777 19.5876 71.4455 19.2988 71.0241 19.0952C70.6027 18.8916 70.1293 18.7898 69.6037 18.7898C69.045 18.7898 68.5573 18.9058 68.1406 19.1378C67.7287 19.3651 67.4091 19.6847 67.1818 20.0966C66.9593 20.5085 66.848 20.9915 66.848 21.5455H65.1719C65.1719 20.6932 65.3684 19.9451 65.7614 19.3011C66.1544 18.6572 66.6894 18.1553 67.3665 17.7955C68.0483 17.4356 68.813 17.2557 69.6605 17.2557C70.5128 17.2557 71.268 17.4356 71.9261 17.7955C72.5843 18.1553 73.1004 18.6406 73.4744 19.2514C73.8485 19.8622 74.0355 20.5417 74.0355 21.2898C74.0355 21.8248 73.9384 22.348 73.7443 22.8594C73.5549 23.366 73.2235 23.9318 72.75 24.5568C72.2812 25.1771 71.6302 25.9347 70.7969 26.8295L67.5298 30.3239V30.4375H74.2912V32H65.1151ZM77.2244 32V30.7216L82.0256 25.4659C82.589 24.8504 83.053 24.3153 83.4176 23.8608C83.7822 23.4015 84.0521 22.9706 84.2273 22.5682C84.4072 22.161 84.4972 21.7348 84.4972 21.2898C84.4972 20.7784 84.3741 20.3357 84.1278 19.9616C83.8864 19.5876 83.5549 19.2988 83.1335 19.0952C82.7121 18.8916 82.2386 18.7898 81.7131 18.7898C81.1544 18.7898 80.6667 18.9058 80.25 19.1378C79.8381 19.3651 79.5185 19.6847 79.2912 20.0966C79.0687 20.5085 78.9574 20.9915 78.9574 21.5455H77.2812C77.2812 20.6932 77.4777 19.9451 77.8707 19.3011C78.2637 18.6572 78.7988 18.1553 79.4759 17.7955C80.1577 17.4356 80.9223 17.2557 81.7699 17.2557C82.6222 17.2557 83.3774 17.4356 84.0355 17.7955C84.6937 18.1553 85.2098 18.6406 85.5838 19.2514C85.9579 19.8622 86.1449 20.5417 86.1449 21.2898C86.1449 21.8248 86.0478 22.348 85.8537 22.8594C85.6643 23.366 85.3329 23.9318 84.8594 24.5568C84.3906 25.1771 83.7396 25.9347 82.9062 26.8295L79.6392 30.3239V30.4375H86.4006V32H77.2244Z" fill="black"/>
<path d="M9.14773 32.2273C13.3026 32.2273 16.6619 28.8679 16.6477 24.7273C16.6335 20.5866 13.3026 17.2273 9.14773 17.2273C5.02131 17.2273 1.66193 20.5866 1.64773 24.7273C1.63352 28.8679 5.02131 32.2273 9.14773 32.2273ZM9.14773 30.5795C5.91619 30.5795 3.28125 27.9446 3.29545 24.7344C3.30966 21.5028 5.9304 18.875 9.14773 18.875C12.3793 18.875 14.9858 21.4886 15 24.7344C15.0142 27.9588 12.3935 30.5795 9.14773 30.5795ZM5 24.7273C5 27.0568 6.8892 28.946 9.21875 28.946C11.2358 28.946 12.7841 27.5256 13.054 25.6364H11.3352C11.1364 26.6094 10.3125 27.2983 9.21875 27.2983C7.7983 27.2983 6.64773 26.1477 6.64773 24.7273C6.64773 23.3068 7.7983 22.1562 9.21875 22.1562C10.3125 22.1562 11.2855 22.8452 11.4773 23.8182H13.196C12.9261 21.929 11.2358 20.5085 9.21875 20.5085C6.8892 20.5085 5 22.3977 5 24.7273Z" fill="black"/>
<path d="M113.938 36.3182C113.128 36.3182 112.432 36.214 111.849 36.0057C111.267 35.8021 110.782 35.5322 110.393 35.196C110.01 34.8646 109.705 34.5095 109.477 34.1307L110.812 33.1932C110.964 33.392 111.156 33.6193 111.388 33.875C111.62 34.1354 111.937 34.3603 112.339 34.5497C112.747 34.7438 113.279 34.8409 113.938 34.8409C114.818 34.8409 115.545 34.6278 116.118 34.2017C116.691 33.7756 116.977 33.108 116.977 32.1989V29.983H116.835C116.712 30.1818 116.537 30.428 116.31 30.7216C116.087 31.0104 115.765 31.2685 115.344 31.4957C114.927 31.7183 114.364 31.8295 113.653 31.8295C112.773 31.8295 111.982 31.6212 111.281 31.2045C110.585 30.7879 110.034 30.1818 109.626 29.3864C109.224 28.5909 109.023 27.625 109.023 26.4886C109.023 25.3712 109.219 24.3982 109.612 23.5696C110.005 22.7363 110.552 22.0923 111.253 21.6378C111.954 21.1785 112.763 20.9489 113.682 20.9489C114.392 20.9489 114.955 21.0672 115.372 21.304C115.794 21.536 116.116 21.8011 116.338 22.0994C116.565 22.393 116.741 22.6345 116.864 22.8239H117.034V21.0909H118.653V32.3125C118.653 33.25 118.44 34.0123 118.014 34.5994C117.593 35.1913 117.025 35.6245 116.31 35.8991C115.599 36.1785 114.809 36.3182 113.938 36.3182ZM113.881 30.3239C114.553 30.3239 115.121 30.17 115.585 29.8622C116.049 29.5545 116.402 29.1117 116.643 28.5341C116.885 27.9564 117.006 27.2652 117.006 26.4602C117.006 25.6742 116.887 24.9806 116.651 24.3793C116.414 23.7779 116.063 23.3068 115.599 22.9659C115.135 22.625 114.563 22.4545 113.881 22.4545C113.17 22.4545 112.579 22.6345 112.105 22.9943C111.636 23.3542 111.284 23.8371 111.047 24.4432C110.815 25.0492 110.699 25.7216 110.699 26.4602C110.699 27.2178 110.817 27.8878 111.054 28.4702C111.295 29.0478 111.651 29.5024 112.119 29.8338C112.593 30.1605 113.18 30.3239 113.881 30.3239ZM121.722 32V21.0909H123.398V32H121.722ZM122.574 19.2727C122.247 19.2727 121.965 19.1615 121.729 18.9389C121.497 18.7164 121.381 18.4489 121.381 18.1364C121.381 17.8239 121.497 17.5563 121.729 17.3338C121.965 17.1113 122.247 17 122.574 17C122.901 17 123.18 17.1113 123.412 17.3338C123.649 17.5563 123.767 17.8239 123.767 18.1364C123.767 18.4489 123.649 18.7164 123.412 18.9389C123.18 19.1615 122.901 19.2727 122.574 19.2727ZM131.212 21.0909V22.5114H125.559V21.0909H131.212ZM127.206 18.4773H128.882V28.875C128.882 29.3485 128.951 29.7036 129.088 29.9403C129.23 30.1723 129.41 30.3286 129.628 30.4091C129.851 30.4848 130.085 30.5227 130.331 30.5227C130.516 30.5227 130.667 30.5133 130.786 30.4943C130.904 30.4706 130.999 30.4517 131.07 30.4375L131.411 31.9432C131.297 31.9858 131.139 32.0284 130.935 32.071C130.731 32.1184 130.473 32.142 130.161 32.142C129.687 32.142 129.223 32.0402 128.769 31.8366C128.319 31.633 127.945 31.3229 127.647 30.9062C127.353 30.4896 127.206 29.964 127.206 29.3295V18.4773ZM135.644 25.4375V32H133.968V17.4545H135.644V22.7955H135.786C136.042 22.232 136.425 21.7846 136.936 21.4531C137.453 21.117 138.139 20.9489 138.996 20.9489C139.739 20.9489 140.391 21.098 140.949 21.3963C141.508 21.6899 141.941 22.142 142.249 22.7528C142.561 23.3589 142.718 24.1307 142.718 25.0682V32H141.042V25.1818C141.042 24.3153 140.817 23.6454 140.367 23.1719C139.922 22.6937 139.304 22.4545 138.513 22.4545C137.964 22.4545 137.471 22.5705 137.036 22.8026C136.605 23.0346 136.264 23.3731 136.013 23.8182C135.767 24.2633 135.644 24.803 135.644 25.4375ZM152.659 27.5398V21.0909H154.335V32H152.659V30.1534H152.545C152.29 30.7074 151.892 31.1785 151.352 31.5668C150.813 31.9503 150.131 32.142 149.307 32.142C148.625 32.142 148.019 31.9929 147.489 31.6946C146.958 31.3916 146.542 30.937 146.239 30.331C145.936 29.7202 145.784 28.9508 145.784 28.0227V21.0909H147.46V27.9091C147.46 28.7045 147.683 29.339 148.128 29.8125C148.578 30.286 149.151 30.5227 149.847 30.5227C150.263 30.5227 150.687 30.4162 151.118 30.2031C151.554 29.9901 151.918 29.6634 152.212 29.223C152.51 28.7827 152.659 28.2216 152.659 27.5398ZM157.632 32V17.4545H159.309V22.8239H159.451C159.574 22.6345 159.744 22.393 159.962 22.0994C160.185 21.8011 160.502 21.536 160.914 21.304C161.33 21.0672 161.894 20.9489 162.604 20.9489C163.523 20.9489 164.332 21.1785 165.033 21.6378C165.734 22.0971 166.281 22.7481 166.674 23.5909C167.067 24.4337 167.263 25.428 167.263 26.5739C167.263 27.7292 167.067 28.7306 166.674 29.5781C166.281 30.4209 165.736 31.0743 165.04 31.5384C164.344 31.9976 163.542 32.2273 162.632 32.2273C161.932 32.2273 161.371 32.1113 160.949 31.8793C160.528 31.6425 160.203 31.375 159.976 31.0767C159.749 30.7737 159.574 30.5227 159.451 30.3239H159.252V32H157.632ZM159.28 26.5455C159.28 27.3693 159.401 28.0961 159.642 28.7259C159.884 29.3509 160.237 29.8409 160.701 30.196C161.165 30.5464 161.733 30.7216 162.405 30.7216C163.106 30.7216 163.691 30.5369 164.159 30.1676C164.633 29.7936 164.988 29.2917 165.225 28.6619C165.466 28.0275 165.587 27.322 165.587 26.5455C165.587 25.7784 165.469 25.0871 165.232 24.4716C165 23.8513 164.647 23.3613 164.174 23.0014C163.705 22.6368 163.115 22.4545 162.405 22.4545C161.723 22.4545 161.15 22.6274 160.686 22.973C160.222 23.3139 159.872 23.7921 159.635 24.4077C159.399 25.0185 159.28 25.7311 159.28 26.5455Z" fill="black"/>
</svg>
