<svg width="206" height="20" viewBox="0 0 206 20" fill="none" xmlns="http://www.w3.org/2000/svg">
<path d="M0.761364 15V0.454545H5.67614C6.8125 0.454545 7.74527 0.648674 8.47443 1.03693C9.2036 1.42045 9.74337 1.94839 10.0938 2.62074C10.4441 3.29309 10.6193 4.05777 10.6193 4.91477C10.6193 5.77178 10.4441 6.53172 10.0938 7.1946C9.74337 7.85748 9.20597 8.37831 8.48153 8.7571C7.7571 9.13116 6.83144 9.31818 5.70455 9.31818H1.72727V7.72727H5.64773C6.42424 7.72727 7.04924 7.61364 7.52273 7.38636C8.00095 7.15909 8.34659 6.83712 8.55966 6.42045C8.77746 5.99905 8.88636 5.49716 8.88636 4.91477C8.88636 4.33239 8.77746 3.82339 8.55966 3.38778C8.34186 2.95218 7.99384 2.616 7.51562 2.37926C7.03741 2.13778 6.4053 2.01705 5.61932 2.01705H2.52273V15H0.761364ZM7.60795 8.46591L11.1875 15H9.14205L5.61932 8.46591H7.60795ZM17.6417 15.2273C16.6568 15.2273 15.7927 14.9929 15.0494 14.5241C14.3107 14.0554 13.7331 13.3996 13.3164 12.5568C12.9045 11.714 12.6985 10.7292 12.6985 9.60227C12.6985 8.46591 12.9045 7.47396 13.3164 6.62642C13.7331 5.77888 14.3107 5.12074 15.0494 4.65199C15.7927 4.18324 16.6568 3.94886 17.6417 3.94886C18.6265 3.94886 19.4883 4.18324 20.2269 4.65199C20.9703 5.12074 21.5479 5.77888 21.9599 6.62642C22.3765 7.47396 22.5849 8.46591 22.5849 9.60227C22.5849 10.7292 22.3765 11.714 21.9599 12.5568C21.5479 13.3996 20.9703 14.0554 20.2269 14.5241C19.4883 14.9929 18.6265 15.2273 17.6417 15.2273ZM17.6417 13.7216C18.3898 13.7216 19.0053 13.5298 19.4883 13.1463C19.9712 12.7628 20.3287 12.2585 20.5607 11.6335C20.7927 11.0085 20.9087 10.3314 20.9087 9.60227C20.9087 8.87311 20.7927 8.19366 20.5607 7.56392C20.3287 6.93419 19.9712 6.42519 19.4883 6.03693C19.0053 5.64867 18.3898 5.45455 17.6417 5.45455C16.8936 5.45455 16.2781 5.64867 15.7951 6.03693C15.3121 6.42519 14.9547 6.93419 14.7227 7.56392C14.4906 8.19366 14.3746 8.87311 14.3746 9.60227C14.3746 10.3314 14.4906 11.0085 14.7227 11.6335C14.9547 12.2585 15.3121 12.7628 15.7951 13.1463C16.2781 13.5298 16.8936 13.7216 17.6417 13.7216ZM26.8196 0.454545V15H25.1435V0.454545H26.8196ZM31.5657 0.454545V15H29.8896V0.454545H31.5657ZM34.6357 15V4.09091H36.3118V15H34.6357ZM35.4879 2.27273C35.1612 2.27273 34.8795 2.16146 34.6428 1.93892C34.4107 1.71638 34.2947 1.44886 34.2947 1.13636C34.2947 0.823864 34.4107 0.556345 34.6428 0.333806C34.8795 0.111269 35.1612 0 35.4879 0C35.8146 0 36.094 0.111269 36.326 0.333806C36.5627 0.556345 36.6811 0.823864 36.6811 1.13636C36.6811 1.44886 36.5627 1.71638 36.326 1.93892C36.094 2.16146 35.8146 2.27273 35.4879 2.27273ZM41.0579 8.4375V15H39.3817V4.09091H41.0011V5.79545H41.1431C41.3988 5.24148 41.7871 4.7964 42.3079 4.46023C42.8287 4.11932 43.5011 3.94886 44.3249 3.94886C45.0636 3.94886 45.7099 4.10038 46.2638 4.40341C46.8178 4.7017 47.2487 5.15625 47.5565 5.76705C47.8642 6.37311 48.0181 7.14015 48.0181 8.06818V15H46.342V8.18182C46.342 7.32481 46.1194 6.6572 45.6744 6.17898C45.2293 5.69602 44.6185 5.45455 43.842 5.45455C43.3069 5.45455 42.8287 5.57055 42.4073 5.80256C41.9906 6.03456 41.6616 6.37311 41.4201 6.81818C41.1786 7.26326 41.0579 7.80303 41.0579 8.4375ZM55.4844 19.3182C54.6747 19.3182 53.9787 19.214 53.3963 19.0057C52.8139 18.8021 52.3286 18.5322 51.9403 18.196C51.5568 17.8646 51.2514 17.5095 51.0241 17.1307L52.3594 16.1932C52.5109 16.392 52.7027 16.6193 52.9347 16.875C53.1667 17.1354 53.4839 17.3603 53.8864 17.5497C54.2936 17.7438 54.8262 17.8409 55.4844 17.8409C56.3651 17.8409 57.0919 17.6278 57.6648 17.2017C58.2377 16.7756 58.5241 16.108 58.5241 15.1989V12.983H58.3821C58.259 13.1818 58.0838 13.428 57.8565 13.7216C57.634 14.0104 57.312 14.2685 56.8906 14.4957C56.474 14.7183 55.9105 14.8295 55.2003 14.8295C54.3196 14.8295 53.5289 14.6212 52.8281 14.2045C52.1321 13.7879 51.5805 13.1818 51.1733 12.3864C50.7708 11.5909 50.5696 10.625 50.5696 9.48864C50.5696 8.37121 50.7661 7.3982 51.1591 6.5696C51.5521 5.73627 52.099 5.09233 52.7997 4.63778C53.5005 4.1785 54.3101 3.94886 55.2287 3.94886C55.9389 3.94886 56.5024 4.06723 56.919 4.30398C57.3404 4.53598 57.6624 4.80114 57.8849 5.09943C58.1122 5.39299 58.2874 5.63447 58.4105 5.82386H58.581V4.09091H60.2003V15.3125C60.2003 16.25 59.9872 17.0123 59.5611 17.5994C59.1397 18.1913 58.5715 18.6245 57.8565 18.8991C57.1463 19.1785 56.3556 19.3182 55.4844 19.3182ZM55.4276 13.3239C56.0999 13.3239 56.6681 13.17 57.1321 12.8622C57.5961 12.5545 57.9489 12.1117 58.1903 11.5341C58.4318 10.9564 58.5526 10.2652 58.5526 9.46023C58.5526 8.67424 58.4342 7.98059 58.1974 7.37926C57.9607 6.77794 57.6103 6.30682 57.1463 5.96591C56.6823 5.625 56.1094 5.45455 55.4276 5.45455C54.7173 5.45455 54.1255 5.63447 53.652 5.99432C53.1832 6.35417 52.8305 6.83712 52.5938 7.44318C52.3617 8.04924 52.2457 8.72159 52.2457 9.46023C52.2457 10.2178 52.3641 10.8878 52.6009 11.4702C52.8423 12.0478 53.1974 12.5024 53.6662 12.8338C54.1397 13.1605 54.7268 13.3239 55.4276 13.3239ZM77.0753 4.09091C76.9901 3.37121 76.6444 2.8125 76.0384 2.41477C75.4323 2.01705 74.6889 1.81818 73.8082 1.81818C73.1643 1.81818 72.6009 1.92235 72.1179 2.13068C71.6397 2.33901 71.2656 2.62547 70.9957 2.99006C70.7306 3.35464 70.598 3.76894 70.598 4.23295C70.598 4.62121 70.6903 4.95502 70.875 5.23438C71.0644 5.509 71.3059 5.73864 71.5994 5.9233C71.893 6.10322 72.2008 6.25237 72.5227 6.37074C72.8447 6.48437 73.1406 6.5767 73.4105 6.64773L74.8878 7.04545C75.2666 7.14489 75.688 7.2822 76.152 7.45739C76.6207 7.63258 77.0682 7.87169 77.4943 8.17472C77.9252 8.47301 78.2803 8.85653 78.5597 9.32528C78.839 9.79403 78.9787 10.3693 78.9787 11.0511C78.9787 11.8371 78.7727 12.5473 78.3608 13.1818C77.9536 13.8163 77.357 14.3205 76.571 14.6946C75.7898 15.0687 74.8404 15.2557 73.723 15.2557C72.6813 15.2557 71.7794 15.0876 71.017 14.7514C70.2595 14.4152 69.6629 13.9465 69.2273 13.3452C68.7964 12.7438 68.5526 12.0455 68.4957 11.25H70.3139C70.3613 11.7992 70.5459 12.2538 70.8679 12.6136C71.1946 12.9687 71.6065 13.2339 72.1037 13.4091C72.6056 13.5795 73.1454 13.6648 73.723 13.6648C74.3954 13.6648 74.9991 13.5559 75.5341 13.3381C76.0691 13.1155 76.4929 12.8078 76.8054 12.4148C77.1179 12.017 77.2741 11.553 77.2741 11.0227C77.2741 10.5398 77.1392 10.1468 76.8693 9.84375C76.5994 9.54072 76.2443 9.29451 75.804 9.10511C75.3636 8.91572 74.8878 8.75 74.3764 8.60795L72.5866 8.09659C71.4503 7.76989 70.5507 7.3035 69.8878 6.69744C69.2249 6.09138 68.8935 5.2983 68.8935 4.31818C68.8935 3.50379 69.1136 2.79356 69.554 2.1875C69.9991 1.5767 70.5956 1.10322 71.3438 0.767045C72.0966 0.426136 72.937 0.255681 73.8651 0.255681C74.8026 0.255681 75.6359 0.423768 76.3651 0.759943C77.0942 1.09138 77.6719 1.54593 78.098 2.12358C78.5289 2.70123 78.7562 3.35701 78.7798 4.09091H77.0753ZM86.0792 15.2273C85.0565 15.2273 84.1758 14.9858 83.4371 14.5028C82.6985 14.0199 82.1303 13.3546 81.7326 12.5071C81.3349 11.6596 81.136 10.6913 81.136 9.60227C81.136 8.49432 81.3396 7.51657 81.7468 6.66903C82.1587 5.81676 82.7317 5.15152 83.4656 4.6733C84.2042 4.19034 85.0659 3.94886 86.0508 3.94886C86.8178 3.94886 87.5091 4.09091 88.1246 4.375C88.7402 4.65909 89.2444 5.05682 89.6374 5.56818C90.0304 6.07955 90.2743 6.67614 90.369 7.35795H88.6928C88.565 6.8608 88.2809 6.42045 87.8406 6.03693C87.4049 5.64867 86.8178 5.45455 86.0792 5.45455C85.4258 5.45455 84.8529 5.625 84.3604 5.96591C83.8728 6.30208 83.4916 6.77794 83.217 7.39347C82.9471 8.00426 82.8121 8.72159 82.8121 9.54545C82.8121 10.3883 82.9447 11.1222 83.2099 11.7472C83.4798 12.3722 83.8585 12.8575 84.3462 13.2031C84.8387 13.5488 85.4163 13.7216 86.0792 13.7216C86.5148 13.7216 86.9102 13.6458 87.2653 13.4943C87.6204 13.3428 87.921 13.125 88.1673 12.8409C88.4135 12.5568 88.5887 12.2159 88.6928 11.8182H90.369C90.2743 12.4621 90.0399 13.0421 89.6658 13.5582C89.2965 14.0696 88.8065 14.4768 88.1957 14.7798C87.5896 15.0781 86.8841 15.2273 86.0792 15.2273ZM97.2511 15.2273C96.2662 15.2273 95.4021 14.9929 94.6587 14.5241C93.9201 14.0554 93.3424 13.3996 92.9258 12.5568C92.5138 11.714 92.3079 10.7292 92.3079 9.60227C92.3079 8.46591 92.5138 7.47396 92.9258 6.62642C93.3424 5.77888 93.9201 5.12074 94.6587 4.65199C95.4021 4.18324 96.2662 3.94886 97.2511 3.94886C98.2359 3.94886 99.0977 4.18324 99.8363 4.65199C100.58 5.12074 101.157 5.77888 101.569 6.62642C101.986 7.47396 102.194 8.46591 102.194 9.60227C102.194 10.7292 101.986 11.714 101.569 12.5568C101.157 13.3996 100.58 14.0554 99.8363 14.5241C99.0977 14.9929 98.2359 15.2273 97.2511 15.2273ZM97.2511 13.7216C97.9992 13.7216 98.6147 13.5298 99.0977 13.1463C99.5806 12.7628 99.9381 12.2585 100.17 11.6335C100.402 11.0085 100.518 10.3314 100.518 9.60227C100.518 8.87311 100.402 8.19366 100.17 7.56392C99.9381 6.93419 99.5806 6.42519 99.0977 6.03693C98.6147 5.64867 97.9992 5.45455 97.2511 5.45455C96.503 5.45455 95.8874 5.64867 95.4045 6.03693C94.9215 6.42519 94.564 6.93419 94.332 7.56392C94.1 8.19366 93.984 8.87311 93.984 9.60227C93.984 10.3314 94.1 11.0085 94.332 11.6335C94.564 12.2585 94.9215 12.7628 95.4045 13.1463C95.8874 13.5298 96.503 13.7216 97.2511 13.7216ZM104.753 19.0909V4.09091H106.372V5.82386H106.571C106.694 5.63447 106.865 5.39299 107.082 5.09943C107.305 4.80114 107.622 4.53598 108.034 4.30398C108.451 4.06723 109.014 3.94886 109.724 3.94886C110.643 3.94886 111.453 4.1785 112.153 4.63778C112.854 5.09706 113.401 5.74811 113.794 6.59091C114.187 7.43371 114.384 8.42803 114.384 9.57386C114.384 10.7292 114.187 11.7306 113.794 12.5781C113.401 13.4209 112.857 14.0743 112.161 14.5384C111.464 14.9976 110.662 15.2273 109.753 15.2273C109.052 15.2273 108.491 15.1113 108.07 14.8793C107.648 14.6425 107.324 14.375 107.097 14.0767C106.869 13.7737 106.694 13.5227 106.571 13.3239H106.429V19.0909H104.753ZM106.401 9.54545C106.401 10.3693 106.521 11.0961 106.763 11.7259C107.004 12.3509 107.357 12.8409 107.821 13.196C108.285 13.5464 108.853 13.7216 109.526 13.7216C110.226 13.7216 110.811 13.5369 111.28 13.1676C111.753 12.7936 112.108 12.2917 112.345 11.6619C112.587 11.0275 112.707 10.322 112.707 9.54545C112.707 8.77841 112.589 8.08712 112.352 7.47159C112.12 6.85133 111.768 6.36127 111.294 6.00142C110.825 5.63684 110.236 5.45455 109.526 5.45455C108.844 5.45455 108.271 5.62737 107.807 5.97301C107.343 6.31392 106.992 6.79214 106.756 7.40767C106.519 8.01847 106.401 8.73106 106.401 9.54545ZM121.514 15.2273C120.463 15.2273 119.556 14.9953 118.794 14.5312C118.036 14.0625 117.452 13.4091 117.04 12.571C116.633 11.7282 116.429 10.7481 116.429 9.63068C116.429 8.51326 116.633 7.52841 117.04 6.67614C117.452 5.81913 118.025 5.15152 118.759 4.6733C119.497 4.19034 120.359 3.94886 121.344 3.94886C121.912 3.94886 122.473 4.04356 123.027 4.23295C123.581 4.42235 124.085 4.73011 124.54 5.15625C124.994 5.57765 125.357 6.13636 125.626 6.83239C125.896 7.52841 126.031 8.38542 126.031 9.40341V10.1136H117.622V8.66477H124.327C124.327 8.04924 124.204 7.5 123.957 7.01705C123.716 6.53409 123.37 6.15294 122.92 5.87358C122.475 5.59422 121.95 5.45455 121.344 5.45455C120.676 5.45455 120.098 5.62026 119.611 5.9517C119.128 6.27841 118.756 6.70455 118.496 7.23011C118.235 7.75568 118.105 8.31913 118.105 8.92045V9.88636C118.105 10.7102 118.247 11.4086 118.531 11.9815C118.82 12.5497 119.22 12.983 119.732 13.2812C120.243 13.5748 120.837 13.7216 121.514 13.7216C121.955 13.7216 122.352 13.66 122.707 13.5369C123.067 13.4091 123.377 13.2197 123.638 12.9688C123.898 12.7131 124.099 12.3958 124.241 12.017L125.861 12.4716C125.69 13.0208 125.404 13.5038 125.001 13.9205C124.599 14.3324 124.102 14.6544 123.51 14.8864C122.918 15.1136 122.253 15.2273 121.514 15.2273ZM136.308 6.53409L134.803 6.96023C134.708 6.70928 134.568 6.46544 134.384 6.22869C134.204 5.98722 133.957 5.78835 133.645 5.6321C133.332 5.47585 132.932 5.39773 132.445 5.39773C131.777 5.39773 131.221 5.55161 130.776 5.85938C130.335 6.16241 130.115 6.5483 130.115 7.01705C130.115 7.43371 130.267 7.76278 130.57 8.00426C130.873 8.24574 131.346 8.44697 131.99 8.60795L133.609 9.00568C134.585 9.24242 135.312 9.60464 135.79 10.0923C136.268 10.5753 136.507 11.1979 136.507 11.9602C136.507 12.5852 136.327 13.1439 135.967 13.6364C135.612 14.1288 135.115 14.517 134.476 14.8011C133.837 15.0852 133.093 15.2273 132.246 15.2273C131.133 15.2273 130.212 14.9858 129.483 14.5028C128.754 14.0199 128.292 13.3144 128.098 12.3864L129.689 11.9886C129.84 12.5758 130.127 13.0161 130.548 13.3097C130.974 13.6032 131.531 13.75 132.217 13.75C132.999 13.75 133.619 13.5843 134.078 13.2528C134.542 12.9167 134.774 12.5142 134.774 12.0455C134.774 11.6667 134.642 11.3494 134.376 11.0938C134.111 10.8333 133.704 10.6392 133.155 10.5114L131.337 10.0852C130.338 9.84848 129.604 9.48153 129.135 8.98438C128.671 8.48248 128.439 7.85511 128.439 7.10227C128.439 6.48674 128.612 5.94223 128.957 5.46875C129.308 4.99527 129.784 4.62358 130.385 4.35369C130.991 4.08381 131.678 3.94886 132.445 3.94886C133.524 3.94886 134.372 4.18561 134.987 4.65909C135.607 5.13258 136.048 5.75758 136.308 6.53409ZM152.837 4.09091C152.752 3.37121 152.406 2.8125 151.8 2.41477C151.194 2.01705 150.451 1.81818 149.57 1.81818C148.926 1.81818 148.363 1.92235 147.88 2.13068C147.401 2.33901 147.027 2.62547 146.757 2.99006C146.492 3.35464 146.36 3.76894 146.36 4.23295C146.36 4.62121 146.452 4.95502 146.637 5.23438C146.826 5.509 147.068 5.73864 147.361 5.9233C147.655 6.10322 147.962 6.25237 148.284 6.37074C148.606 6.48437 148.902 6.5767 149.172 6.64773L150.65 7.04545C151.028 7.14489 151.45 7.2822 151.914 7.45739C152.382 7.63258 152.83 7.87169 153.256 8.17472C153.687 8.47301 154.042 8.85653 154.321 9.32528C154.601 9.79403 154.74 10.3693 154.74 11.0511C154.74 11.8371 154.534 12.5473 154.123 13.1818C153.715 13.8163 153.119 14.3205 152.333 14.6946C151.551 15.0687 150.602 15.2557 149.485 15.2557C148.443 15.2557 147.541 15.0876 146.779 14.7514C146.021 14.4152 145.425 13.9465 144.989 13.3452C144.558 12.7438 144.314 12.0455 144.257 11.25H146.076C146.123 11.7992 146.308 12.2538 146.63 12.6136C146.956 12.9687 147.368 13.2339 147.865 13.4091C148.367 13.5795 148.907 13.6648 149.485 13.6648C150.157 13.6648 150.761 13.5559 151.296 13.3381C151.831 13.1155 152.255 12.8078 152.567 12.4148C152.88 12.017 153.036 11.553 153.036 11.0227C153.036 10.5398 152.901 10.1468 152.631 9.84375C152.361 9.54072 152.006 9.29451 151.566 9.10511C151.125 8.91572 150.65 8.75 150.138 8.60795L148.348 8.09659C147.212 7.76989 146.312 7.3035 145.65 6.69744C144.987 6.09138 144.655 5.2983 144.655 4.31818C144.655 3.50379 144.875 2.79356 145.316 2.1875C145.761 1.5767 146.357 1.10322 147.105 0.767045C147.858 0.426136 148.699 0.255681 149.627 0.255681C150.564 0.255681 151.398 0.423768 152.127 0.759943C152.856 1.09138 153.434 1.54593 153.86 2.12358C154.291 2.70123 154.518 3.35701 154.542 4.09091H152.837ZM161.841 15.2273C160.818 15.2273 159.938 14.9858 159.199 14.5028C158.46 14.0199 157.892 13.3546 157.494 12.5071C157.097 11.6596 156.898 10.6913 156.898 9.60227C156.898 8.49432 157.101 7.51657 157.509 6.66903C157.92 5.81676 158.493 5.15152 159.227 4.6733C159.966 4.19034 160.828 3.94886 161.812 3.94886C162.58 3.94886 163.271 4.09091 163.886 4.375C164.502 4.65909 165.006 5.05682 165.399 5.56818C165.792 6.07955 166.036 6.67614 166.131 7.35795H164.455C164.327 6.8608 164.043 6.42045 163.602 6.03693C163.167 5.64867 162.58 5.45455 161.841 5.45455C161.188 5.45455 160.615 5.625 160.122 5.96591C159.634 6.30208 159.253 6.77794 158.979 7.39347C158.709 8.00426 158.574 8.72159 158.574 9.54545C158.574 10.3883 158.706 11.1222 158.972 11.7472C159.241 12.3722 159.62 12.8575 160.108 13.2031C160.6 13.5488 161.178 13.7216 161.841 13.7216C162.277 13.7216 162.672 13.6458 163.027 13.4943C163.382 13.3428 163.683 13.125 163.929 12.8409C164.175 12.5568 164.35 12.2159 164.455 11.8182H166.131C166.036 12.4621 165.802 13.0421 165.428 13.5582C165.058 14.0696 164.568 14.4768 163.957 14.7798C163.351 15.0781 162.646 15.2273 161.841 15.2273ZM170.257 8.4375V15H168.581V0.454545H170.257V5.79545H170.399C170.655 5.23201 171.038 4.78456 171.55 4.45312C172.066 4.11695 172.752 3.94886 173.609 3.94886C174.353 3.94886 175.004 4.09801 175.562 4.39631C176.121 4.68987 176.554 5.14205 176.862 5.75284C177.175 6.3589 177.331 7.13068 177.331 8.06818V15H175.655V8.18182C175.655 7.31534 175.43 6.64536 174.98 6.17188C174.535 5.69366 173.917 5.45455 173.126 5.45455C172.577 5.45455 172.085 5.57055 171.649 5.80256C171.218 6.03456 170.877 6.37311 170.626 6.81818C170.38 7.26326 170.257 7.80303 170.257 8.4375ZM184.829 15.2273C183.844 15.2273 182.98 14.9929 182.237 14.5241C181.498 14.0554 180.921 13.3996 180.504 12.5568C180.092 11.714 179.886 10.7292 179.886 9.60227C179.886 8.46591 180.092 7.47396 180.504 6.62642C180.921 5.77888 181.498 5.12074 182.237 4.65199C182.98 4.18324 183.844 3.94886 184.829 3.94886C185.814 3.94886 186.676 4.18324 187.414 4.65199C188.158 5.12074 188.735 5.77888 189.147 6.62642C189.564 7.47396 189.772 8.46591 189.772 9.60227C189.772 10.7292 189.564 11.714 189.147 12.5568C188.735 13.3996 188.158 14.0554 187.414 14.5241C186.676 14.9929 185.814 15.2273 184.829 15.2273ZM184.829 13.7216C185.577 13.7216 186.193 13.5298 186.676 13.1463C187.159 12.7628 187.516 12.2585 187.748 11.6335C187.98 11.0085 188.096 10.3314 188.096 9.60227C188.096 8.87311 187.98 8.19366 187.748 7.56392C187.516 6.93419 187.159 6.42519 186.676 6.03693C186.193 5.64867 185.577 5.45455 184.829 5.45455C184.081 5.45455 183.466 5.64867 182.983 6.03693C182.5 6.42519 182.142 6.93419 181.91 7.56392C181.678 8.19366 181.562 8.87311 181.562 9.60227C181.562 10.3314 181.678 11.0085 181.91 11.6335C182.142 12.2585 182.5 12.7628 182.983 13.1463C183.466 13.5298 184.081 13.7216 184.829 13.7216ZM196.763 15.2273C195.778 15.2273 194.914 14.9929 194.17 14.5241C193.432 14.0554 192.854 13.3996 192.438 12.5568C192.026 11.714 191.82 10.7292 191.82 9.60227C191.82 8.46591 192.026 7.47396 192.438 6.62642C192.854 5.77888 193.432 5.12074 194.17 4.65199C194.914 4.18324 195.778 3.94886 196.763 3.94886C197.748 3.94886 198.609 4.18324 199.348 4.65199C200.091 5.12074 200.669 5.77888 201.081 6.62642C201.498 7.47396 201.706 8.46591 201.706 9.60227C201.706 10.7292 201.498 11.714 201.081 12.5568C200.669 13.3996 200.091 14.0554 199.348 14.5241C198.609 14.9929 197.748 15.2273 196.763 15.2273ZM196.763 13.7216C197.511 13.7216 198.126 13.5298 198.609 13.1463C199.092 12.7628 199.45 12.2585 199.682 11.6335C199.914 11.0085 200.03 10.3314 200.03 9.60227C200.03 8.87311 199.914 8.19366 199.682 7.56392C199.45 6.93419 199.092 6.42519 198.609 6.03693C198.126 5.64867 197.511 5.45455 196.763 5.45455C196.015 5.45455 195.399 5.64867 194.916 6.03693C194.433 6.42519 194.076 6.93419 193.844 7.56392C193.612 8.19366 193.496 8.87311 193.496 9.60227C193.496 10.3314 193.612 11.0085 193.844 11.6335C194.076 12.2585 194.433 12.7628 194.916 13.1463C195.399 13.5298 196.015 13.7216 196.763 13.7216ZM205.941 0.454545V15H204.265V0.454545H205.941Z" fill="black"/>
</svg>
